<?xml version="1.0" standalone="no"?>
<!DOCTYPE svg PUBLIC "-//W3C//DTD SVG 20010904//EN"
 "http://www.w3.org/TR/2001/REC-SVG-20010904/DTD/svg10.dtd">
<svg version="1.0" xmlns="http://www.w3.org/2000/svg"
 width="700.000000pt" height="700.000000pt" viewBox="0 0 700.000000 700.000000"
 preserveAspectRatio="xMidYMid meet">
<metadata>
Created by potrace 1.14, written by Peter Selinger 2001-2017
</metadata>
<g transform="translate(0.000000,700.000000) scale(0.100000,-0.100000)"
fill="#000000" stroke="none">
<path d="M3169 6704 c-102 -74 -62 -234 61 -244 53 -5 71 1 106 33 62 57 58
161 -8 208 -45 32 -118 34 -159 3z"/>
<path d="M4195 6631 c-102 -47 -100 -188 4 -241 83 -42 177 11 187 105 6 59
-16 103 -68 135 -41 25 -71 25 -123 1z"/>
<path d="M2212 6470 c-75 -31 -106 -126 -62 -197 53 -88 190 -82 233 10 22 45
21 84 -1 126 -31 58 -108 85 -170 61z"/>
<path d="M1345 6408 c-116 -16 -164 -34 -257 -95 -380 -249 -366 -805 26
-1037 164 -98 379 -111 551 -35 274 121 423 426 349 713 -27 104 -82 199 -169
291 -35 38 -137 101 -205 128 -94 37 -198 50 -295 35z"/>
<path d="M5156 6240 c-43 -8 -105 -65 -107 -97 0 -10 -2 -25 -4 -34 -5 -30 33
-98 67 -119 94 -57 217 21 203 130 -8 64 -35 94 -115 125 -3 1 -23 -2 -44 -5z"/>
<path d="M5871 5542 c-70 -35 -93 -109 -57 -182 28 -57 63 -75 144 -71 12 1
38 16 58 34 69 64 63 162 -15 214 -41 27 -84 29 -130 5z"/>
<path d="M3478 5475 c-2 -1 -50 -5 -108 -8 -379 -21 -775 -175 -1082 -423
-391 -315 -657 -789 -715 -1274 -9 -81 -10 -371 -1 -465 31 -330 193 -716 417
-995 313 -389 762 -641 1271 -715 91 -14 385 -13 490 1 306 41 606 156 858
330 l93 65 29 -21 c75 -53 216 -74 318 -46 207 56 334 269 285 479 -15 68 -30
98 -77 159 l-34 46 43 88 c53 111 121 308 141 409 34 172 44 267 44 420 0 182
-14 297 -57 475 -59 250 -206 545 -376 755 -69 86 -248 257 -339 326 -300 224
-669 364 -1013 385 -49 3 -111 7 -137 8 -26 2 -49 2 -50 1z m195 -119 c556
-50 1064 -357 1370 -826 201 -309 298 -640 298 -1015 -1 -267 -54 -510 -166
-752 l-43 -92 -53 20 c-102 39 -228 30 -331 -22 -91 -47 -186 -175 -203 -274
-17 -106 2 -210 53 -294 l21 -35 -60 -43 c-164 -120 -393 -224 -606 -277 -97
-25 -113 -28 -248 -46 -72 -9 -368 -6 -440 5 -427 66 -772 239 -1060 530 -289
292 -462 640 -522 1055 -10 71 -10 408 0 480 46 313 167 608 349 850 40 52 76
100 82 106 6 6 30 32 53 57 124 135 329 289 503 378 169 87 361 152 515 174
22 4 47 8 55 10 8 2 49 7 90 11 41 3 76 7 77 8 5 4 196 -2 266 -8z"/>
<path d="M3417 4444 c-1 -1 -26 -5 -54 -9 -274 -34 -551 -233 -679 -486 -32
-64 -68 -160 -78 -210 -3 -13 -8 -35 -11 -49 -13 -51 -13 -247 1 -320 64 -356
319 -634 670 -731 110 -30 306 -35 424 -10 437 93 741 483 725 931 -4 112 -4
110 -30 210 -88 338 -403 619 -746 666 -49 6 -217 13 -222 8z"/>
<path d="M771 5118 c-73 -13 -125 -92 -107 -162 10 -40 55 -85 97 -97 45 -14
105 -1 132 29 19 21 44 82 41 100 -1 6 -2 21 -3 32 -1 27 -56 86 -89 97 -15 5
-47 6 -71 1z"/>
<path d="M6355 4661 c-68 -30 -101 -124 -66 -190 37 -67 134 -92 196 -50 34
24 65 80 65 119 0 30 -29 83 -57 104 -29 21 -107 31 -138 17z"/>
<path d="M439 4161 c-48 -15 -69 -32 -87 -69 -59 -118 54 -236 175 -182 118
52 95 229 -32 253 -17 3 -42 2 -56 -2z"/>
<path d="M6521 3653 c-52 -27 -75 -65 -75 -122 0 -137 165 -192 245 -80 28 40
31 115 5 154 -38 57 -116 79 -175 48z"/>
<path d="M435 3149 c-39 -11 -91 -66 -98 -103 -6 -38 10 -96 36 -124 53 -57
154 -51 203 13 79 104 -15 248 -141 214z"/>
<path d="M6376 2659 c-112 -31 -128 -192 -25 -252 35 -19 106 -16 141 7 57 38
75 128 35 187 -34 51 -94 74 -151 58z"/>
<path d="M763 2193 c-34 -7 -80 -55 -91 -96 -32 -116 87 -209 196 -153 16 8
36 26 46 40 22 34 27 105 10 138 -27 53 -99 85 -161 71z"/>
<path d="M5871 1758 c-102 -50 -97 -195 8 -243 104 -46 220 57 182 162 -32 87
-110 121 -190 81z"/>
<path d="M1361 1383 c-59 -31 -77 -69 -72 -152 0 -13 18 -41 40 -62 34 -35 44
-39 87 -39 61 0 105 25 127 73 22 46 21 72 -3 122 -32 65 -114 92 -179 58z"/>
<path d="M5131 1073 c-71 -37 -95 -104 -63 -176 47 -106 192 -107 242 -2 41
87 -9 176 -106 190 -27 4 -49 1 -73 -12z"/>
<path d="M2224 840 c-34 -13 -81 -67 -88 -101 -15 -74 36 -151 108 -165 54
-10 122 22 147 68 32 59 5 154 -52 183 -36 19 -86 25 -115 15z"/>
<path d="M4190 658 c-50 -34 -66 -72 -61 -146 2 -39 60 -92 108 -99 55 -7 84
1 116 33 82 81 34 221 -80 231 -39 4 -55 0 -83 -19z"/>
<path d="M3191 583 c-50 -26 -74 -63 -74 -116 0 -111 113 -176 205 -119 40 25
56 50 63 99 15 102 -102 184 -194 136z"/>
</g>
</svg>
